<?xml version="1.0" encoding="UTF-8"?>
<svg width="300px" height="300px" viewBox="0 0 300 300" version="1.1" xmlns="http://www.w3.org/2000/svg" xmlns:xlink="http://www.w3.org/1999/xlink">
    <!-- Generator: Sketch 48.2 (47327) - http://www.bohemiancoding.com/sketch -->
    <title>icon-distributor</title>
    <desc>Created with Sketch.</desc>
    <defs></defs>
    <g id="Page-1" stroke="none" stroke-width="1" fill="none" fill-rule="evenodd">
        <g id="icon-distributor">
            <path d="M150,5 C188.730896,5 225.1436,20.0826492 252.530502,47.4695015 C279.917358,74.8563995 295,111.269096 295,150 C295,188.730904 279.917358,225.1436 252.530502,252.530502 C225.1436,279.917358 188.730896,295 150,295 C111.269104,295 74.8563995,279.917358 47.4694977,252.530502 C20.0826492,225.1436 5,188.730896 5,150 C5,111.269104 20.0826492,74.8563995 47.4695015,47.4695015 C74.8563995,20.0826492 111.269096,5 150,5 Z M150,0 C67.1573029,0 0,67.1573029 0,150 C0,232.842697 67.1573029,300 150,300 C232.842697,300 300,232.842697 300,150 C300,67.1573029 232.842697,0 150,0 Z" id="Shape" fill="#34B6E4" fill-rule="nonzero"></path>
            <path d="M150,17 C185.525574,17 218.924805,30.8344231 244.045197,55.9548073 C269.165588,81.0751915 283,114.474426 283,150 C283,185.525574 269.165588,218.924805 244.045197,244.045197 C218.924805,269.165588 185.525574,283 150,283 C114.474426,283 81.0751953,269.165588 55.9548035,244.045197 C30.8344117,218.924805 17,185.525574 17,150 C17,114.474426 30.8344231,81.0751953 55.9548073,55.9548035 C81.0751915,30.8344117 114.474426,17 150,17 Z M150,15 C75.4415741,15 15,75.4415741 15,150 C15,224.558426 75.4415741,285 150,285 C224.558426,285 285,224.558426 285,150 C285,75.4415741 224.558426,15 150,15 Z" id="Shape" fill="#34B6E4" fill-rule="nonzero"></path>
            <g id="delivery-van" transform="translate(59.000000, 87.000000)" stroke="#34B6E4">
                <path d="M40.9992446,91 C31.6086713,91 24,98.6082651 24,107.999748 C24,117.391661 31.6085978,125 40.9992446,125 C50.3924829,125 58,117.392595 58,107.999748 C58,98.6073315 50.3924094,91 40.9992446,91 Z M40.9992446,116.82531 C36.125091,116.82531 32.1752815,112.874596 32.1752815,107.999748 C32.1752815,103.123542 36.124435,99.1741868 40.9992446,99.1741868 C45.8748512,99.1741868 49.8262293,103.123834 49.8262293,107.999748 C49.8262293,112.874303 45.8741949,116.82531 40.9992446,116.82531 Z" id="Shape" stroke-width="2" fill-rule="nonzero"></path>
                <path d="M136.998993,91 C127.608382,91 120,98.6081635 120,107.999748 C120,117.391763 127.608309,125 136.998993,125 C146.392699,125 154,117.39277 154,107.999748 C154,98.6071563 146.392625,91 136.998993,91 Z M136.998993,116.82531 C132.124858,116.82531 128.175424,112.874676 128.175424,107.999748 C128.175424,103.123462 132.124202,99.1741868 136.998993,99.1741868 C141.875073,99.1741868 145.826591,103.123744 145.826591,107.999748 C145.826591,112.874394 141.874416,116.82531 136.998993,116.82531 Z" id="Shape" stroke-width="2" fill-rule="nonzero"></path>
                <path d="M172.278899,61.3022055 C165.638698,59.5808125 161.839013,58.498563 159.231575,53.4773703 L150.512922,35.8749015 C147.904471,30.8537087 141.129996,26.7450008 135.460616,26.7450008 L123.535615,26.7450008 C123.535615,26.7450008 121.931428,26.7783474 121.931428,25.1686151 C121.931428,21.4777504 121.931428,10.4056616 121.931428,10.4056616 C121.931428,4.68267403 118.683531,0 111.774782,0 L14.5871621,0 C4.69602344,0 0,4.68317929 0,10.4056616 C0,69.1981128 0,98.5943384 0,98.5943384 C0,104.316821 4.69602344,109 10.4353261,109 C10.4353261,109 14.7584241,109 16.1994568,109 C17.5067227,109 17.6992657,108.273953 17.6992657,107.909161 C17.6992657,94.9347993 28.2860928,84.3805937 41.2979489,84.3805937 C54.3108183,84.3805937 64.8971387,94.9358098 64.8971387,107.909161 C64.8971387,108.275469 64.7927601,109 65.7924639,109 C77.2183733,109 112.309849,109 112.309849,109 C113.232029,109 113.194534,108.224944 113.194534,107.909161 C113.194534,94.9347993 123.780854,84.3805937 136.793217,84.3805937 C149.80558,84.3805937 160.3919,94.9358098 160.3919,107.909161 C160.3919,108.275469 160.38278,109 160.959902,109 C166.1991,109 172.6878,109 172.6878,109 C178.360219,109 183,104.373409 183,98.7176198 L183,79.1825628 C183.000507,62.7310577 177.791204,62.7310577 172.278899,61.3022055 Z" id="Shape" stroke-width="5" fill-rule="nonzero"></path>
                <path d="M152.65623,60.3871944 C152.65623,60.3871944 130.757499,60.3871944 123.304564,60.3871944 C122.092049,60.3871944 121.930921,59.2099576 121.930921,59.2099576 L121.930921,34.8290302 C121.930921,34.8290302 121.862518,33.8927985 123.419583,33.8927985 C125.513742,33.8927985 131.794698,33.8927985 131.794698,33.8927985 C136.840846,33.8927985 142.868457,37.5488008 145.1886,42.0167428 L152.947071,57.6795498 C153.273888,58.3101041 153.622999,58.8699231 153.996938,59.3716382 C154.272578,59.7394616 153.810475,60.3871944 152.65623,60.3871944 Z" id="Path" stroke-width="2"></path>
            </g>
        </g>
    </g>
</svg>